<?xml version="1.0" encoding="UTF-8"?><svg id="Warstwa_1" xmlns="http://www.w3.org/2000/svg" viewBox="0 0 1092.44 210.62"><defs><style>.cls-1{fill:#fff;}.cls-2{fill:#c5b66f;}</style></defs><path class="cls-2" d="M124.23,110.47c.19,1.01.81,1.55,1.83,1.56.71,0,1.15-.51,1.38-1.49.36-1.61.33-3.32,1.27-4.79.12-.2.08-.5.17-.73.04-.15.17-.34.29-.37.4-.08.45-.35.35-.64-.2-.6-.43-1.19-.67-1.77-.05-.11-.39-.23-.44-.18-.36.38-.85.76-1,1.23-.19.58-.52.84-1.03.95-.43.09-.85.16-1.29.19-.64.06-.89.45-.65,1.04.18.47.29.95.51,1.39.22.45.15.8-.17,1.13-.67.73-.71,1.59-.55,2.49Z"/><path class="cls-2" d="M37.59,39.45c-1.25,1.38-2.4,2.79-3.47,4.24-.21-.23-.18-.47.11-.74.77-.69.76-1.46.37-2.32-.07-.18-.12-.38-.15-.57-.07-.55.39-.92.91-.81.51.09,1.03.2,1.51.18.26-.01.49-.01.71.02Z"/><path class="cls-2" d="M72.71,3.65C32.63,3.65,0,36.28,0,76.36s32.63,72.71,72.71,72.71,72.71-32.62,72.71-72.71S112.8,3.65,72.71,3.65ZM72.71,5.73c3.25,0,6.36,2.24,9.19,6.21-.8-.03-1.59-.04-2.37-.04-.12,0-.32.06-.37.17-.28.53-.72.39-1.18.35-.26-.03-.6.01-.82.15-.79.45-1.54.99-2.29,1.48-.05-.04-.11-.09-.16-.15.5-.64,1.01-1.28,1.56-1.98-.49-.23-1.04-.48-1.6-.74.28-.17.54-.31.95-.55-.3-.16-.49-.26-.68-.34-.45-.21-.88-.43-1.33-.62-1.12-.5-2.18-1.08-3.53-.91-1.23.15-2.46.06-3.69-.03h-.1c2.05-1.92,4.2-2.98,6.42-2.98ZM65.64,6.55c-1,.84-1.97,1.84-2.91,3h-5.17c2.6-1.35,5.3-2.36,8.08-3ZM57.93,10.38c-.24.05-.43.09-.72.17.29.32.54.58.68.73-.77-.17-1.57-.38-2.4-.56.65-.38,1.31-.76,1.96-1.1.2.32.32.53.48.77ZM22.91,26.92c.21-.31.26-.84.88-.55.13.05.43-.07.58-.19.33-.22.68-.46.97-.74.15-.15.34-.46.3-.59-.09-.2-.37-.36-.62-.43-.02,0-.05-.01-.08-.02,8.92-8.19,19.94-14.14,32.16-16.9-2.04,1.02-4,2.26-5.91,3.67-1.04.18-2.08.36-3.11.56-.23.04-.44.22-.62.37-.19.16-.29.43-.51.55-1.33.83-2.87,1.2-4.29,1.86-.18.07-.28.25-.42.38.16.09.34.26.52.27.98.04.98.03,1.31,1.09-.53.16-1.05.38-1.6.45-1.21.09-2.24.64-3.32,1.08-.3.11-.52.37-.78.57v.2c.77.27,1.52.53,2.35.81-.14.1-.25.21-.36.28-.47.29-.44.86.05,1.12.18.09.35.12.52.17.07.02.16.03.23.05-1.5,1.88-2.91,3.9-4.24,6-.08-.05-.17-.11-.25-.18-.26-.21-.56-.39-.95-.64v-.74c-.11-.03-.27-.08-.46-.1-1.1-.13-2.23-.18-3.33-.38-.76-.12-1.4.05-2.05.34-.37.16-.79.37-.59.86.27.62-.12,1.08-.26,1.71-.24-.35-.42-.61-.58-.88-.38-.58-.32-.92.24-1.34.34-.27.73-.5,1.16-.79-1.13-.43-2.08.02-3.04.26-.06.01-.12.07-.16.15-.31.76-.69,1.49-.92,2.27-.18.59.14.91.76,1.01.2.02.38.03.58.07-.01.03-.01.07-.03.1-.27.07-.54.15-.82.22,0,.06-.02.12-.02.19.5.18,1.02.33,1.5.53.42.17.83.32,1.2.58.37.26-.05.63,0,.92.11.95-.47,1.5-1.03,2.07-.09.11-.42.18-.52.1-.13-.11-.23-.37-.22-.56.01-.18.16-.35.27-.52.16-.27.14-.48-.17-.63-.14-.07-.27-.19-.39-.27-.39-.28-.71-.21-.97.18-.12.16-.27.3-.48.54-.07-.31-.14-.48-.15-.65-.03-.43-.11-.74-.63-.78-.12-.01-.33-.32-.32-.47.08-1.04-.39-1.78-1.14-2.41-.26-.23-.48-.48-.24-.83ZM54.84,11.78c-.25-.09-.49-.15-.72-.21.16-.1.31-.2.47-.3.05.09.12.18.19.28.01.03.01.06.06.23ZM36.49,32.08c-.06.01-.1.02-.16.02.03-.06.07-.13.1-.21.02.05.04.11.05.19ZM25.69,45.03c-.02.08-.07.16-.15.23-.81.81-2.08.52-2.29-.68-.06-.32-.06-.52-.34-.73-.22-.17-.43-.31-.56-.56-.25-.47-.21-1.04-.12-1.54.2-.97.77-1.87,1.5-2.52.25-.22.5-.41.7-.68.12-.16.22-.32.34-.47.32-.34.71-.55,1.14-.73.34-.14.79-.21,1.05-.52.31-.36.4-.86.59-1.29.45-.96,1.33-1.23,2.32-1.33.47-.05,1-.09,1.27-.53.24-.38.3-.92.37-1.37.06-.44.04-.74-.05-1.18-.07-.38-.02-.78.25-1.08.59-.65,1.46-.3,2.19-.1.01-.02.01-.04.01-.06.11.04.21.09.31.15.27.05.56.07.83.16-2.75,4.95-5.06,10.47-6.86,16.39-.47-.22-.91-.51-1.35-.87-.34-.31-.73-.57-1.15-.69ZM26.25,54.11c-.12.58-.24,1.15-.35,1.75-.75.12-1.62.09-1.44-.88.11-.51.63-.66,1.09-.75.21-.02.39-.06.62-.09.03,0,.05-.01.08-.02ZM21.93,27.35c-.01.3-.16.56-.48.66-.14.03-.23.1-.31.18.26-.28.52-.56.79-.84ZM20.84,28.52c-.12.2-.19.45-.28.69-.12.37-.01.6.32.75.39.16.81.35,1.22.46.47.11.66.36.72.82.04.43-.2.64-.53.79-.36.15-.53.41-.49.77.06.54-.22.64-.66.62-.14-.45.34-1.02-.35-1.29.36-.42,1.21-.2,1.14-.89-.53-.37-1.01-.73-1.52-1.04-.12-.08-.45-.03-.49.05-.23.51-.68.64-1.15.79-.17.04-.24.29-.36.45.14.08.27.2.44.26.3.09.62.16.95.24-.27.73-.64,1.16-1.45.88-.24-.07-.51-.06-.77,0-.16.04-.32.06-.48.06,1.19-1.52,2.45-2.99,3.76-4.4ZM2.08,76.36c0-3.51.28-6.95.78-10.34.09.08.23.12.37.14,1.16.22,1.88.9,2.41,1.92.56,1,1.25,1.93,1.86,2.9.11.17.22.32.34.5-.21.06-.35.11-.54.16.16.51.52.75.98.89.72.23.84.39.88,1.14.01.18.09.38.22.5.44.42.9.81,1.37,1.18.11.09.31.14.44.1.08-.02.21-.21.21-.32.04-.31-.06-.55-.42-.68-.16-.03-.3-.17-.36-.31-.41-.74-.72-1.52-1.17-2.22-.43-.62-1-1.14-1.44-1.75-.32-.44-.68-.9-.46-1.49.78.01,1.13.41,1.33,1.11.14.51.46,1,.83,1.38.6.64,1.5,1.07,1.69,2.07.02.1.17.18.26.28.82.86,1.66,1.7,2.44,2.6.16.19.21.59.14.84-.16.49-.04.81.3,1.16,1.04,1.08,2.44,1.49,3.74,2.11.64.31,1.36.45,2.07.64.51.16.99.22,1.52-.03.38-.18.83-.12,1.17.18.34.32.68.65,1.02.97.31,5.96,1.11,11.74,2.33,17.21H5.89c-2.45-7.17-3.81-14.85-3.81-22.85ZM6.63,101.29h20.22c2.5,10.19,6.5,19.3,11.58,26.77-.07.35-.18.77-.38,1.05-.01.04-.05.07-.08.09-.04.1-.06.19-.09.26-.16.51-.08,1.03-.22,1.55-.12.53-.36.96-.32,1.53.06,1.07.22,2.17.46,3.22.11.17.24.31.45.41.15.07.33.1.46.22.62.49.91.47,1.3-.18.21.26.59.48.11.84-.05.04,0,.35.08.43.4.35.84.68,1.28,1.01h.33c.22-.06.45-.14.66-.2.1-.55-.19-1.14-.45-1.7-.15-.24-.28-.5-.41-.75-.54-1.11-.77-2.16.07-3.2.03-.04.06-.07.09-.11,4.52,5.51,9.68,9.88,15.32,12.71-23.24-5.27-42.15-22-50.47-43.94ZM42.3,129.94c-.26-.73.03-1.39.69-1.98.49-.44.79-.75.92-1.41.08-.33-.07-.61-.08-.96,0-.27.07-.47.22-.66.03-.05.04-.12.08-.17.16-.26.42-.35.73-.31.01,0,.05,0,.07.01.01-.02.06-.04.12-.06.07-.1.13-.14.21-.24.12-.23.19-.5.36-.73.16-.23.34-.44.56-.59.35-.25.75-.41,1.15-.52.55-.14,1.55-.15,1.87-.7.38-.71-.41-1.71.21-2.3l.05-.04c-.05-.02-.09-.04-.13-.06.07,0,.13,0,.2.02.39-.25.98-.19,1.38-.12.58.07.84-.59,1.09-1.02.04-.07.09-.14.14-.2,3.19,13.52,7.9,23.62,13.5,28.28-8.83-2.04-16.86-7.83-23.34-16.25ZM72.71,146.99c-.79,0-1.58-.15-2.35-.41-.28-.1-.57-.22-.85-.33-5.87-2.65-11.09-12.54-14.67-26.52-.42-.41-.83-.78-1.26-1.13-2.07-1.73-5.14-3.82-6.64-4.79-2.93-1.89-5.35-3.16-6.88-3.93-.07.75-.04,1.51-.07,2.26-.01.42-.05.86-.22,1.22-.16.27-.26.58-.33.88-.05.5-.09,1-.1,1.51-.03,1.61-.06,3.16-.46,4.74-.19.75-.39,1.5-.46,2.27-.04.52.02,1.05.07,1.57.01.04.01.08.01.12-4.09-6.68-7.36-14.52-9.54-23.17h1.74c-.42-.66-.81-1.36-1.17-2.08h-1.06c-.31-1.36-.59-2.75-.84-4.17-1.97-5.02-3.22-10.75-3.67-16.38l-.05.02c-.73.17-1.45.45-2.18-.07-.19-.12-.38-.26-.55-.44-.12-.15-.15-.38-.29-.51-.88-.85-.7-1.96-.82-3-.03-.27,0-.62.14-.84.36-.5.29-1.01.2-1.55-.08-.6.09-.87.69-1.11.25-.09.51-.21.71-.36.64-.53,1.32-.64,2.09-.49.03-.52.07-1.04.12-1.56.76-7.5,3.33-14.78,7.59-21.47-.06-.08-.17-.12-.31-.15-.36-.04-.74-.16-1.09-.16,1.48-4.84,3.3-9.4,5.43-13.59.04.02.09.01.19-.07.16-.15.25-.44.37-.62.16-.26.34-.47.62-.59,1.38-.63,2.18,1.12,1.6,2.19-.16.27-.36.48-.65.56-.05.01-.1.01-.15.02,0,.03,0,.06-.02.12.04.2-.02.41-.08.56-.22.58-.6.83-1.18.89-.26.02-1.14.04-1.03.44.03.16.17.29.35.39.59-.01,1.18-.01,1.79-.01.12,0,.28.01.38.08.31.26.61.57.92.82.32-.34.65-.69.99-1.02.73-.74,1.46-1.44,2.19-2.09-.02-.03-.03-.04-.05-.05.03-.08.05-.16.06-.25.17-.04.32-.1.49-.16.61-.56,1.23-1.09,1.83-1.59-.21-.07-.38-.18-.47-.32-.3-.45-.64-.38-1.07-.37-.2.01-.43-.06-.55-.19-.2-.18-.31-.44-.46-.66.04-.11.29-.27.54-.44.25-.18.51-.34.72-.56.06-.07.02-.38-.05-.41-.62-.32-1.23-.81-2.08-.55-.26-1.13-1.05-1.55-2.07-1.7,1.44-2.29,2.98-4.42,4.6-6.41.92.11,1.86.15,2.81.1,1.32-.07,2.52.4,3.27,1.63.19.29.38.59.63.82.98.9,1.36,1.91.8,3.21-.16.37-.11.65.09.81,1.95-1.28,3.45-2.11,4.2-2.5l3.73-1.99,2.7,3.24,2.41,2.9,2.49,3c2.12-.46,4.26-.81,6.4-1.1.29-.15.58-.31.86-.5.6-.4,1.3-.65,1.94-.97.15-.07.3-.16.44-.23-.01-.07-.03-.14-.04-.21-.52,0-1.04.02-1.57-.01-.18-.02-.33-.17-.51-.25.12-.18.21-.37.37-.51.08-.08.31-.02.4-.1.27-.24.7-.48.76-.78.12-.6-.11-1.29.41-1.8.02-.02.04-.07.02-.1-.43-.71.24-.68.58-.89.23-.12.5-.27.58-.47.31-.7.56-1.42.79-2.14.16-.45.03-.81-.42-1.04-.2-.09-.45-.2-.52-.36-.12-.23-.2-.54-.14-.79.01-.09.46-.2.65-.15.32.13.62.37,1.05.64.11-.29.34-.62.34-.93,0-.15-.49-.26-.71-.42-.22-.14-.48-.29-.54-.5-.1-.37-.32-.49-.66-.48h-.66c.28-.65.49-1.26,1.13-1.58.19-.1.42-.48.35-.63-.22-.65.17-.76.61-.84.18-.03.36-.02.49-.1.45-.34.95-.64,1.27-1.08.17-.2.24-.36.49-.47.63-.28,1.27-.59,1.88-.91,2.85,4.34,5.37,10.46,7.41,17.84.77.03,1.54.08,2.31.14-3.13-11.56-7.46-20.17-12.51-24.38,11.1,2.54,20.93,11.04,28.02,23.25-.28.16-.59.23-.93.28-.14.02-.27.03-.39.03-.21.51-.93.78-1.5.92-.45.11-.91.17-1.31.43-.33.21-.56.54-.73.89,4.77.92,9.46,2.23,14.04,3.9l.1.04c-.07-.21-.11-.39-.15-.6-.04-.15-.04-.32-.1-.46-.06-.12-.02-.11-.22-.08-.65.14-.96-.87-.3-1.02-.01,0-.02-.01-.03-.02.03-.04.07-.1.09-.14.18.03.33.08.51.14.09.01.2.03.27.07.45.1.86.23,1.29.38,1.28.48,2,.78,2.92.4.26-.31.65-.52,1.03-.65.39-.37.41-.81-.01-1.18-.7-.62-1.33-1.36-2.38-1.41-.19-.01-.39-.09-.54-.21-.66-.5-1.41-.48-2.18-.42-.22.02-.53,0-.64-.14-.39-.48-.93-.57-1.47-.6-.47-.04-.6-.2-.37-.6.16-.33.01-.47-.29-.55-.45-.13-.9-.27-1.35-.4-.36-.1-.73-.14-1.08.11-.1.08-.37.08-.49,0-.65-.51-.81-.53-1.52-.09-.11.08-.25.16-.38.2-5.64-9.76-12.99-17.3-21.38-21.51,16.53,3.74,30.86,13.27,40.76,26.37-.24.17-.47.36-.7.52-.53.37-1.23.71-1.87.47-.26-.09-.44-.29-.66-.42-.31-.18-.59-.06-.89.09-.58.35-1.04.76-1.7.93-.5.14-.91.18-1.09.59,0,.07.02.16.04.22.02.3.02.56-.08.86-.08.3-.35.42-.65.37-.28-.05-.6-.1-.87-.19-.01.05-.04.12-.05.19,0,.01-.01.03-.02.04l-.12,3.72c-.23,7.22-2.1,13.66-5.6,19.14-.75,1.16-1.53,2.25-2.37,3.26.2.19.43.33.63.47.76.47,1.59.82,2.54.44.12-.05.28.01.44-.01.56-.05,1.13-.14,1.7-.16.37-.01.74.01,1.04.03.04.33.07.66.1,1.01,0,.11.01.23.03.34.01.09.02.22.04.33.02.24-.03.45-.19.68-.18.23-.3.55-.31.83-.02.69.01,1.37.06,2.07.01.41,0,.77-.29,1.11-.1.14-.13.49-.03.64.43.68.87,1.35,1.22,2.08.02.92.03,1.88.03,2.81,0,.52-.01,1.03-.02,1.54-.21-.56-.46-1.09-.88-1.55-.1-.11-.16-.28-.22-.43-.51-1.28-1.01-2.56-1.5-3.81.09-.05.34-.07.45-.21.8-1.08.32-2.21-.74-2.43-1.06-.24-2.11-.42-3.2.03-.33.15-.83.03-1.24-.04-.52-.11-1.03-.32-1.55-.49-.34-.11-.77-.16-1.06-.35-.48-.32-.99-.44-1.52-.43-.19,0-.36.02-.55.04-.65.11-.82.32-.71.98v.02c.02.19-.06.45-.19.6-.2.23-.48.42-.74.63-.03-.01-.09-.03-.11-.06-.06-.07-.12-.12-.18-.18-.02-.02-.04-.04-.06-.06-4.5,3.21-9.57,5.56-14.81,7.99-3.38,1.56-4.93,2.04-6.59,2.54-1.08.34-2.18.69-4.06,1.42l-.07,1.43c.15.28.32.51.54.73.25.23.5.45.68.71.42.58.74,1.23,1.18,1.76.74.88,1.56,1.72,2.38,2.52.24.24.63.39.96.43.82.07,1.64.01,2.45.12,1.87.25,3.5-.53,5.17-1.13.54-.21,1.01-.29,1.5-.01.12.07.26.17.38.25.01.01.01.02.02.02-.22,3.5-.51,6.95-.89,10.26h-17.43c-.16.42-.32.85-.49,1.28-.1.27-.22.54-.34.8h18.01c-3.34,26.4-11.76,45.7-21.32,45.7ZM99.02,94.56c.1.36.24.7.39,1.03.3.38.57.77.83,1.17.15.21.21.47.29.75.04.08.09.17.16.26.11.06.26.17.32.3.08.22.15.46.21.69.07.16.15.3.21.46h-5.01c.34-3.05.6-6.23.8-9.46.31-.09.62-.12.96,0,.01,0,.03.01.04.01.42.11.74.45.91.89.24.63.11,1.29-.05,1.93-.16.69-.26,1.28-.06,1.97ZM96.19,101.29h5.65c-.02,1.28-.57,2.4-1.27,3.48-.23,1.29-.09,2.54.77,3.77.44.61.76,1.4.83,2.15.15,1.69.79,3.18,1.59,4.62.6,1.04,1.34,1.98,1.29,3.28-.01.23.1.49.23.72.27.45.66.71,1.2.64.98-.11,1.95-.24,2.91-.32.08,0,.16-.03.24-.04-7.19,13.99-17.75,23.81-29.84,26.59,7.7-6.42,13.75-23.1,16.4-44.89ZM88.32,145.23c10-5.04,18.54-14.78,24.46-27.44.19-.21.36-.43.55-.64.52-.65,1.05-1.32,1.57-1.97.25-.31.48-.63.65-1,.17-.33.19-.69.26-1.06.12-.66.64-1.12,1.05-1.63.59-.71.26-1.49.32-2.31.07-.9.71-1.65,1.2-2.38.69-1.03,1.41-2.03,2.1-3.04.24-.81.41-1.63.5-2.46h17.8c-8.31,21.94-27.22,38.67-50.47,43.94ZM121.04,99.21c-.05-1.52.12-2.96.8-4.35.72-1.49,1.88-2.65,3.09-3.76,1.3-1.18,2.65-2.35,3.85-3.61.39-.99.65-2.06.79-3.18-.65.17-1.26.35-1.89.47-.9.17-1.8.33-2.7.39-.81.04-1.18-.33-1.38-1.13-.02-.13-.11-.27-.2-.37-.54-.53-1.04-1.16-1.65-1.56-.14-.08-.25-.17-.36-.26.07-1.44.11-2.91.14-4.38.02.03.05.06.07.08.63.44.89,1.07,1.34,1.61.8,1,1.11,2.05.85,3.31-.08.43.13.75.59.82.27.06.58.14.84.07,1.23-.33,2.46-.62,3.64-1.06.78-.28,1.55-.7,2.14-1.25.45-.43.9-.47,1.41-.6.21-.05.41-.19.58-.33.73-.59,1.43-1.18,2.14-1.8.18-.15.34-.36.39-.58.12-.59.26-1.13.78-1.56.42-.33.33-.68-.12-.95-.47-.26-.93-.55-1.42-.79-.42-.21-.65-.5-.6-.98.01-.17-.04-.34-.05-.51-.06-.04-.12-.06-.18-.09-.33.36-.69.71-.99,1.07-.39.49-.84.74-1.48.7-.2-.02-.42.1-.68.2-.11-.09-.31-.22-.51-.36-.43-.28-.76-.6-.5-1.19.04-.09-.02-.26-.09-.33-.27-.24-.57-.44-.84-.68-.2-.17-.45-.33-.54-.55-.23-.5-.43-.99-1.12-1.05.35-.47.57-.82,1.19-.86.69-.03.99.46,1.42.76.16.11.28.39.32.61.06.46.23.85.66,1.04.9.38,1.76.95,2.81.34.5-.29.74-.14.89.46.14.47.43.61.89.61.53-.01,1.1-.03,1.62.1,1.06.29,2.11.18,3.17-.05.97-.19,1.18-.07,1.52.87.29.78.32.78,1.14.81.17.01.33.05.5.1,0,.29.01.59.01.89,0,8-1.35,15.68-3.8,22.85h-18.5Z"/><path class="cls-2" d="M109.81,39.34c-1.24-.36-2.53-.72-3.88-1.05-2-.48-4.12-.92-6.35-1.29-.6-.09-1.2-.19-1.82-.28-1.4-.2-2.78-.37-4.14-.49-.73-.07-1.43-.12-2.14-.18-.05,0-.1,0-.15-.01-1.04-.07-2.06-.11-3.05-.15-.64-.02-1.27-.02-1.89-.03-.28,0-.57-.01-.84-.01-.1,0-.2.01-.3.01-1.15,0-2.29.02-3.39.07-.08,0-.17,0-.25.01-1.24.05-2.44.12-3.61.23-.51.05-1.03.1-1.54.15-.88.09-1.73.2-2.58.31-.88.11-1.73.23-2.57.38-2.49.41-4.75.88-6.75,1.37-.62-.76-1.25-1.51-1.87-2.25-1.69-2.02-3.38-4.04-5.06-6.08-.6.31-2.52,1.38-5.11,3.17-3.16,2.19-7.27,5.44-11.21,9.83-3.38,3.76-6.6,8.33-8.9,13.73-.02.04-.05.09-.08.16-.01.02-.02.03-.04.05.01.02.01.05.01.07-.25.59-.49,1.19-.72,1.81-.15.41-.29.8-.43,1.23-.01.02-.01.03-.02.05-.95,2.84-1.63,5.88-1.95,9.12-.03.27-.05.54-.07.82-.29,3.52-.17,7.22.31,10.83.24,1.83.56,3.64.98,5.39.54,2.35,1.23,4.59,2.04,6.67l.03.08.6,1.46.16.36c2.04,4.55,4.68,8.07,7.69,9.62.91.48,4.33,2.04,8.84,4.93.33.21,3.43,2.21,6.09,4.29.37.3.75.6,1.1.9,2.65,2.24,7.8,7.28,11.98,17.05.73-2.79,1.47-6.91,1.17-11.87-.33-5.61-1.85-10.03-3.05-12.82,1.07-1.59,2.22-3.49,3.29-5.71.32-.66.64-1.36.93-2.08.1-.21.19-.43.28-.64,2.25-5.62,2.95-10.68,3.14-14.29-3.38,4.81-6.72,8.27-9.22,10.59-.43.39-.82.76-1.22,1.09-.79.7-1.52,1.28-2.18,1.79-.25.18-.49.34-.72.52h-.01c-.34.24-.66.45-.99.65h-.01c-.21.11-.42.23-.61.34-.09.05-.2.09-.29.16-.2.1-.37.19-.56.27-.35.17-.7.29-1.02.39s-.63.18-.9.23c-.44.07-.84.09-1.24.09h-.12c-1.87-.02-3.39-.66-4.36-1.18-.84-1.05-1.09-1.97-1.16-2.63-.24-2.34,1.49-4.72,4.23-6.96,5.53-4.59,15.21-8.71,21.07-11.21,1.6-.69,2.84-1.17,3.84-1.56,3.92-1.45,4.43-1.18,9.26-3.44,4.09-1.87,7.98-3.68,11.47-5.85,2.53-1.56,4.87-3.31,6.93-5.42,1.31-1.35,2.5-2.85,3.57-4.54,1.76-2.75,4.53-8.14,4.8-16.49-1.68-.62-3.48-1.22-5.41-1.79ZM78.48,72.55c-4.03-3.28-7.29-7.29-9.67-11.89-1.17-2.27-2.11-4.67-2.79-7.14-.19-.69-.36-1.38-.52-2.08-.57-2.64-.87-5.34-.87-8.04h4.4c.17,2.71.61,5.41,1.36,8.04.2.7.41,1.39.64,2.08.59,1.68,1.3,3.33,2.12,4.92,2.08,4.03,4.82,7.59,8.17,10.63l-2.85,3.48ZM97.03,49.16c-.38,2.11-2.23,3.71-4.46,3.71-1.64,0-3.07-.87-3.86-2.17-.43-.69-.66-1.5-.66-2.37,0-.49.07-.96.22-1.39.03-.1.06-.21.1-.3.02-.05.05-.1.07-.18.06-.14.15-.29.23-.43.08-.15.18-.29.28-.42.09-.13.21-.27.32-.38.03-.04.06-.07.09-.1.03-.03.06-.06.1-.09.18-.18.36-.32.57-.46.08-.05.18-.11.27-.16h.01c.66-.39,1.43-.61,2.25-.61.1,0,.21,0,.31.01.44.03.85.12,1.25.27.1.03.2.08.3.12.2.08.37.17.55.3.09.04.18.09.25.16,1.14.81,1.88,2.15,1.88,3.66,0,.28-.03.56-.08.83Z"/><path class="cls-1" d="M179.32,131.69c-.84,0-1.53-.68-1.53-1.53V42.48c0-8.8,3.86-14.19,14.51-14.19h52.89c2.15,0,3.9,1.75,3.9,3.9v6.7c0,2.15-1.75,3.9-3.9,3.9h-50.13c-.84,0-1.53.68-1.53,1.53v31.98c0,.84.68,1.53,1.53,1.53h46.59c2.15,0,3.9,1.75,3.9,3.9v6.7c0,2.15-1.75,3.9-3.9,3.9h-46.59c-.84,0-1.53.68-1.53,1.53v36.31c0,.84-.68,1.53-1.53,1.53h-12.7Z"/><path class="cls-1" d="M255.78,93.41c0-21.75,15.59-39.51,38.28-39.51s37.05,16.51,37.05,37.66v6.17h-58.67c-.95,0-1.72.89-1.54,1.83,2.35,11.99,11.92,20.24,24.86,20.24,8.1,0,15.5-3.07,20.21-9.42,1.17-1.57,3.19-2.24,4.93-1.34l5,2.56c1.99,1.02,2.82,3.56,1.6,5.44-6.94,10.66-18.2,16.35-31.59,16.35-23,0-40.12-16.66-40.12-39.97ZM314.1,87.86c.92,0,1.68-.83,1.57-1.74-1.34-11.08-9.89-18.48-21.77-18.48s-20.21,8-22.38,18.37c-.2.94.58,1.85,1.54,1.85h41.02Z"/><path class="cls-1" d="M339.94,93.41c0-21.75,15.59-39.51,38.28-39.51s37.03,16.51,37.03,37.66v6.17h-58.66c-.95,0-1.72.89-1.54,1.83,2.35,11.99,11.92,20.24,24.86,20.24,8.1,0,15.5-3.07,20.21-9.42,1.17-1.57,3.19-2.24,4.93-1.34l5,2.56c1.99,1.02,2.82,3.56,1.6,5.44-6.94,10.66-18.2,16.35-31.59,16.35-23,0-40.12-16.66-40.12-39.97ZM398.26,87.86c.92,0,1.68-.83,1.57-1.74-1.34-11.08-9.88-18.48-21.77-18.48s-20.21,8-22.38,18.37c-.2.94.58,1.85,1.54,1.85h41.03Z"/><path class="cls-1" d="M424.1,94.03c0-23,16.68-39.81,39.51-39.81,8.91,0,17.11,3.42,23.15,8.81.95.85,2.48.1,2.48-1.18l.13-38.99c0-.84.68-1.52,1.53-1.52h12.24c.84,0,1.53.68,1.53,1.53v71.16c0,22.38-17.44,39.51-40.28,39.51s-40.29-17.74-40.29-39.51ZM489.38,93.87c0-13.74-10.79-25.16-24.99-25.16s-25.01,11.42-25.01,25.16,10.96,25.31,25.01,25.31,24.99-11.42,24.99-25.31Z"/><path class="cls-1" d="M517.2,93.41c0-21.75,15.59-39.51,38.28-39.51s37.03,16.51,37.03,37.66v6.17h-58.66c-.95,0-1.72.89-1.54,1.83,2.35,11.99,11.92,20.24,24.86,20.24,8.1,0,15.5-3.07,20.21-9.42,1.17-1.57,3.19-2.24,4.93-1.34l5,2.56c1.99,1.02,2.82,3.56,1.6,5.44-6.94,10.66-18.2,16.35-31.59,16.35-23,0-40.12-16.66-40.12-39.97ZM575.52,87.86c.92,0,1.68-.83,1.57-1.74-1.34-11.08-9.88-18.48-21.77-18.48s-20.21,8-22.38,18.37c-.2.94.58,1.85,1.54,1.85h41.03Z"/><path class="cls-1" d="M607.67,131.69c-.84,0-1.53-.68-1.53-1.53v-43.54c0-18.37,10.49-32.11,30.25-32.11,4.41,0,8.95.79,12.66,2.36.58.24.93.83.93,1.46v8.23c0,2.66-2.57,4.42-5.12,3.66-2.32-.69-4.72-1.04-7.07-1.04-10.19,0-16.36,6.95-16.36,18.06v42.92c0,.84-.68,1.53-1.53,1.53h-12.23Z"/><path class="cls-1" d="M652.98,28.29h12.61c.72,0,1.35.51,1.49,1.21l17.8,85.36c.45,2.32,1.23,3.41,2.46,3.41s2.16-.93,2.63-3.41l17.13-73.61c2.01-9.56,7.25-13.89,14.35-13.89s12.35,4.16,14.51,13.74l17.74,73.77c.62,2.16,1.23,3.24,2.63,3.24s2-1.08,2.31-3.24l16.43-85.33c.14-.72.77-1.24,1.5-1.24h12.62c.96,0,1.69.88,1.49,1.83l-17.99,88.6c-1.86,9.11-7.1,14.82-15.59,14.82s-13.89-4.94-16.2-14.35l-17.91-74.7c-.3-1.38-.77-2.01-1.55-2.01-.62,0-1.23.63-1.55,2.01l-17.43,75.62c-2.01,8.65-8.03,13.58-15.43,13.58-8.03,0-14.05-4.94-16.06-14.05l-19.5-89.51c-.21-.95.52-1.85,1.49-1.85Z"/><path class="cls-1" d="M792.83,93.72c0-21.77,17.76-39.51,40.44-39.51s40.12,17.89,40.12,39.51-17.44,39.81-40.12,39.81-40.44-17.89-40.44-39.81ZM858.12,93.87c0-13.89-10.79-25.31-24.84-25.31s-25.16,11.42-25.16,25.31,10.96,25.16,25.16,25.16,24.84-11.42,24.84-25.16Z"/><path class="cls-1" d="M887.48,131.69c-.84,0-1.53-.68-1.53-1.53v-43.54c0-18.37,10.49-32.11,30.25-32.11,4.41,0,8.95.79,12.66,2.36.58.24.93.83.93,1.46v8.23c0,2.66-2.57,4.42-5.12,3.66-2.32-.69-4.72-1.04-7.07-1.04-10.19,0-16.36,6.95-16.36,18.06v42.92c0,.84-.68,1.53-1.53,1.53h-12.23Z"/><path class="cls-1" d="M952.48,22.87v107.3c0,.84-.68,1.53-1.53,1.53h-12.22c-.84,0-1.53-.68-1.53-1.53V22.87c0-.84.68-1.53,1.53-1.53h12.22c.84,0,1.53.68,1.53,1.53Z"/><path class="cls-1" d="M967.94,94.03c0-23,16.68-39.81,39.51-39.81,8.91,0,17.11,3.42,23.15,8.81.95.85,2.48.1,2.48-1.18l.13-38.99c0-.84.68-1.52,1.53-1.52h12.24c.84,0,1.53.68,1.53,1.53v71.16c0,22.38-17.44,39.51-40.28,39.51s-40.29-17.74-40.29-39.51ZM1033.22,93.87c0-13.74-10.79-25.16-24.99-25.16s-25.01,11.42-25.01,25.16,10.96,25.31,25.01,25.31,24.99-11.42,24.99-25.31Z"/><path class="cls-1" d="M1066.65,3.02h-5.86v16.39h-2.9V3.02h-5.83V.34h14.6v2.67Z"/><path class="cls-1" d="M1067.63,19.43l2.68-16.9c.25-1.65,1.45-2.53,2.99-2.53,1.37,0,2.53.65,2.96,2.16l3.67,13.29c.06.26.11.34.26.34.17,0,.2-.09.28-.34l3.64-13.23c.4-1.51,1.62-2.19,2.99-2.19,1.51,0,2.67.91,2.93,2.59l2.42,16.79h-2.93l-2.11-15.88c-.06-.4-.17-.65-.48-.65-.25,0-.43.2-.51.57l-3.93,13.66c-.31,1.14-1.22,1.71-2.3,1.71s-1.99-.57-2.31-1.65l-3.9-13.74c-.11-.4-.25-.57-.51-.57s-.45.2-.51.65l-2.36,15.93h-2.96Z"/><path class="cls-2" d="M869.34,179.96c0-4.67,1.52-8.54,4.57-11.61,3.05-3.07,6.77-4.6,11.15-4.6h.37c4.35.04,7.8,1.64,10.36,4.81v-4.27h7.01v29.86c0,5.12-1.53,9.14-4.6,12.07-3.07,2.93-6.85,4.39-11.36,4.39-3.74,0-7.11-1.03-10.12-3.11-3.01-2.07-4.98-5.1-5.91-9.08h7.01c.69,1.95,1.88,3.38,3.57,4.3s3.48,1.37,5.39,1.37c2.64,0,4.8-.81,6.46-2.44,1.67-1.63,2.52-4.08,2.56-7.38v-2.62c-2.52,3.01-5.97,4.51-10.36,4.51-4.63,0-8.47-1.55-11.52-4.66-3.05-3.11-4.57-6.96-4.57-11.55ZM875.87,179.96c0,2.8.99,5.16,2.99,7.07,1.99,1.91,4.39,2.86,7.19,2.86s5.21-.96,7.22-2.9c2.01-1.93,3.02-4.28,3.02-7.04s-1-5.11-2.99-7.04c-1.99-1.93-4.41-2.89-7.25-2.89s-5.25.95-7.22,2.86c-1.97,1.91-2.96,4.27-2.96,7.07Z"/><path class="cls-2" d="M910.06,153.02c.89-.85,1.97-1.28,3.23-1.28s2.33.42,3.2,1.25,1.31,1.88,1.31,3.14-.43,2.29-1.28,3.11c-.9.85-1.97,1.28-3.23,1.28s-2.34-.42-3.23-1.25c-.89-.83-1.34-1.88-1.34-3.14s.45-2.26,1.34-3.11ZM916.7,164.3v32.3h-7.01v-32.3h7.01Z"/><path class="cls-2" d="M927.55,168.63c3.25-3.25,7.15-4.88,11.7-4.88,4.06,0,7.61,1.31,10.64,3.93,3.03,2.62,4.88,5.9,5.58,9.84.24.97.37,1.95.37,2.92,0,.85-.1,1.71-.31,2.56h-25.97c.41,2.4,1.52,4.31,3.32,5.73,1.81,1.42,3.93,2.13,6.37,2.13,3.74,0,6.73-1.34,8.96-4.02l6.22,1.64c-1.3,2.6-3.38,4.68-6.25,6.25-2.86,1.56-5.84,2.35-8.93,2.35-4.67,0-8.6-1.62-11.79-4.88-3.19-3.25-4.79-7.17-4.79-11.77s1.62-8.57,4.88-11.82ZM929.55,177.65h19.14c-.41-2.15-1.47-3.97-3.2-5.46-1.73-1.48-3.83-2.22-6.31-2.22s-4.59.74-6.34,2.22c-1.75,1.49-2.84,3.3-3.29,5.46Z"/><path class="cls-2" d="M966.43,196.6v-19.44l-7.13,2.99v-6.34l7.13-2.99v-16.88h7.31v14.14l7.01-2.92v6.34l-7.01,2.92v22.19h-7.31Z"/><path class="cls-2" d="M988.74,168.63c3.13-3.25,6.93-4.88,11.4-4.88s7.8,1.62,10.36,4.88v-14.69h7.01v42.66h-7.01v-4.27c-2.56,3.17-6.02,4.75-10.36,4.75s-8.22-1.64-11.37-4.91c-3.15-3.27-4.72-7.18-4.72-11.73s1.56-8.57,4.69-11.82ZM990.57,180.45c0,2.84.97,5.27,2.93,7.28,1.95,2.01,4.36,3.02,7.25,3.02s5.21-1.02,7.22-3.05c2.01-2.03,3.02-4.45,3.02-7.25s-1.01-5.23-3.02-7.28c-2.01-2.05-4.42-3.08-7.22-3.08s-5.25,1.02-7.22,3.05c-1.97,2.03-2.96,4.47-2.96,7.31Z"/><path class="cls-2" d="M1027.99,168.63c3.13-3.25,6.93-4.88,11.4-4.88s7.8,1.62,10.36,4.88v-4.33h7.01v32.3h-7.01v-4.33c-2.56,3.21-6.02,4.82-10.36,4.82s-8.22-1.64-11.37-4.91c-3.15-3.27-4.72-7.18-4.72-11.73s1.56-8.57,4.69-11.82ZM1029.82,180.45c0,2.84.98,5.27,2.96,7.28,1.97,2.01,4.37,3.02,7.22,3.02s5.21-1.02,7.22-3.05c2.01-2.03,3.02-4.45,3.02-7.25s-1.01-5.23-3.02-7.28c-2.01-2.05-4.42-3.08-7.22-3.08s-5.25,1.02-7.22,3.05c-1.97,2.03-2.96,4.47-2.96,7.31Z"/></svg>